<svg width="466" height="306" viewBox="0 0 466 306" fill="none" xmlns="http://www.w3.org/2000/svg">
<g filter="url(#filter0_dd)">
<rect x="4" width="458" height="298" fill="white"/>
</g>
<mask id="mask0" mask-type="alpha" maskUnits="userSpaceOnUse" x="4" y="0" width="458" height="298">
<rect x="4" width="458" height="298" fill="white"/>
</mask>
<g mask="url(#mask0)">
<path d="M245.713 237.437C224.606 244.749 205.252 302.631 198.213 330.658L451.982 440.74L824.675 3.00508L647.796 -42.6424C583.332 32.7256 443.484 188.493 399.802 208.616C345.201 233.771 272.095 228.295 245.713 237.437Z" fill="#4E93FD" fill-opacity="0.87"/>
<path d="M319.464 269.429C298.358 276.742 279.004 334.624 271.965 362.651L525.733 472.732L898.426 34.9975L721.548 -10.65C657.084 64.718 517.235 220.485 473.554 240.609C418.952 265.764 345.847 260.288 319.464 269.429Z" fill="#4E93FD" fill-opacity="0.87"/>
</g>
<defs>
<filter id="filter0_dd" x="0" y="0" width="466" height="306" filterUnits="userSpaceOnUse" color-interpolation-filters="sRGB">
<feFlood flood-opacity="0" result="BackgroundImageFix"/>
<feColorMatrix in="SourceAlpha" type="matrix" values="0 0 0 0 0 0 0 0 0 0 0 0 0 0 0 0 0 0 127 0"/>
<feOffset dy="4"/>
<feGaussianBlur stdDeviation="2"/>
<feColorMatrix type="matrix" values="0 0 0 0 0 0 0 0 0 0 0 0 0 0 0 0 0 0 0.25 0"/>
<feBlend mode="normal" in2="BackgroundImageFix" result="effect1_dropShadow"/>
<feColorMatrix in="SourceAlpha" type="matrix" values="0 0 0 0 0 0 0 0 0 0 0 0 0 0 0 0 0 0 127 0"/>
<feOffset dy="4"/>
<feGaussianBlur stdDeviation="2"/>
<feColorMatrix type="matrix" values="0 0 0 0 0 0 0 0 0 0 0 0 0 0 0 0 0 0 0.25 0"/>
<feBlend mode="normal" in2="effect1_dropShadow" result="effect2_dropShadow"/>
<feBlend mode="normal" in="SourceGraphic" in2="effect2_dropShadow" result="shape"/>
</filter>
</defs>
</svg>
