<svg width="1920" height="1080" viewBox="0 0 1920 1080" fill="none" xmlns="http://www.w3.org/2000/svg">
<mask id="mask0" mask-type="alpha" maskUnits="userSpaceOnUse" x="0" y="0" width="1920" height="1080">
<rect width="1920" height="1080" fill="white"/>
</mask>
<g mask="url(#mask0)">
<path d="M1278.65 450.147C1011.42 555.242 806.871 977.861 738 1176.03L2900 1751C2782.11 924.092 2479.51 -669.234 2212.28 -427.272C1878.25 -124.819 2005.67 -144.983 1917.54 -13.6142C1829.42 117.754 1612.68 318.779 1278.65 450.147Z" fill="#4E93FD" fill-opacity="0.87"/>
<path d="M1278.65 736.147C1011.42 841.242 806.871 1263.86 738 1462.03L2900 2037C2782.11 1210.09 2479.51 -383.234 2212.28 -141.272C1878.25 161.181 2005.67 141.017 1917.54 272.386C1829.42 403.754 1612.68 604.779 1278.65 736.147Z" fill="#4E93FD" fill-opacity="0.87"/>
</g>
</svg>
